<svg width="102" height="52" viewBox="0 0 102 52" fill="none" xmlns="http://www.w3.org/2000/svg">
<g id="Group 15">
<path id="RentCam" d="M23.1426 21.2031H27.915C28.8936 21.2031 29.7344 21.3496 30.4375 21.6426C31.1465 21.9355 31.6914 22.3691 32.0723 22.9434C32.4531 23.5176 32.6436 24.2236 32.6436 25.0615C32.6436 25.7471 32.5264 26.3359 32.292 26.8281C32.0635 27.3145 31.7383 27.7217 31.3164 28.0498C30.9004 28.3721 30.4111 28.6299 29.8486 28.8232L29.0137 29.2627H24.8652L24.8477 27.2061H27.9326C28.3955 27.2061 28.7793 27.124 29.084 26.96C29.3887 26.7959 29.6172 26.5674 29.7695 26.2744C29.9277 25.9814 30.0068 25.6416 30.0068 25.2549C30.0068 24.8447 29.9307 24.4902 29.7783 24.1914C29.626 23.8926 29.3945 23.6641 29.084 23.5059C28.7734 23.3477 28.3838 23.2686 27.915 23.2686H25.7793V34H23.1426V21.2031ZM30.2969 34L27.3789 28.2959L30.165 28.2783L33.1182 33.877V34H30.2969ZM39.7926 34.1758C39.0543 34.1758 38.3922 34.0586 37.8062 33.8242C37.2203 33.584 36.7223 33.2529 36.3121 32.8311C35.9078 32.4092 35.5973 31.9199 35.3805 31.3633C35.1637 30.8008 35.0553 30.2031 35.0553 29.5703V29.2188C35.0553 28.498 35.1578 27.8389 35.3629 27.2412C35.568 26.6436 35.8609 26.125 36.2418 25.6855C36.6285 25.2461 37.0973 24.9092 37.648 24.6748C38.1988 24.4346 38.8199 24.3145 39.5113 24.3145C40.1852 24.3145 40.7828 24.4258 41.3043 24.6484C41.8258 24.8711 42.2623 25.1875 42.6139 25.5977C42.9713 26.0078 43.2408 26.5 43.4225 27.0742C43.6041 27.6426 43.6949 28.2754 43.6949 28.9727V30.0273H36.1363V28.3398H41.2076V28.1465C41.2076 27.7949 41.1432 27.4814 41.0143 27.2061C40.8912 26.9248 40.7037 26.7021 40.4518 26.5381C40.1998 26.374 39.8775 26.292 39.485 26.292C39.151 26.292 38.8639 26.3652 38.6236 26.5117C38.3834 26.6582 38.1871 26.8633 38.0348 27.127C37.8883 27.3906 37.777 27.7012 37.7008 28.0586C37.6305 28.4102 37.5953 28.7969 37.5953 29.2188V29.5703C37.5953 29.9512 37.648 30.3027 37.7535 30.625C37.8648 30.9473 38.0201 31.2256 38.2193 31.46C38.4244 31.6943 38.6705 31.876 38.9576 32.0049C39.2506 32.1338 39.5816 32.1982 39.9508 32.1982C40.4078 32.1982 40.8326 32.1104 41.2252 31.9346C41.6236 31.7529 41.9664 31.4805 42.2535 31.1172L43.484 32.4531C43.2848 32.7402 43.0123 33.0156 42.6666 33.2793C42.3268 33.543 41.9166 33.7598 41.4361 33.9297C40.9557 34.0938 40.4078 34.1758 39.7926 34.1758ZM48.5148 26.5205V34H45.9836V24.4902H48.3566L48.5148 26.5205ZM48.1457 28.9111H47.4602C47.4602 28.208 47.551 27.5752 47.7326 27.0127C47.9143 26.4443 48.1691 25.9609 48.4973 25.5625C48.8254 25.1582 49.215 24.8506 49.6662 24.6396C50.1232 24.4229 50.633 24.3145 51.1955 24.3145C51.6408 24.3145 52.048 24.3789 52.4172 24.5078C52.7863 24.6367 53.1027 24.8418 53.3664 25.123C53.6359 25.4043 53.841 25.7764 53.9816 26.2393C54.1281 26.7021 54.2014 27.2676 54.2014 27.9355V34H51.6525V27.9268C51.6525 27.5049 51.5939 27.1768 51.4768 26.9424C51.3596 26.708 51.1867 26.5439 50.9582 26.4502C50.7355 26.3506 50.4602 26.3008 50.132 26.3008C49.7922 26.3008 49.4963 26.3682 49.2443 26.5029C48.9982 26.6377 48.7932 26.8252 48.6291 27.0654C48.4709 27.2998 48.3508 27.5752 48.2687 27.8916C48.1867 28.208 48.1457 28.5479 48.1457 28.9111ZM61.6844 24.4902V26.2832H56.1473V24.4902H61.6844ZM57.5184 22.1436H60.0496V31.1348C60.0496 31.4102 60.0848 31.6211 60.1551 31.7676C60.2313 31.9141 60.3426 32.0166 60.4891 32.0752C60.6355 32.1279 60.8201 32.1543 61.0428 32.1543C61.201 32.1543 61.3416 32.1484 61.4646 32.1367C61.5936 32.1191 61.702 32.1016 61.7898 32.084L61.7986 33.9473C61.5818 34.0176 61.3475 34.0732 61.0955 34.1143C60.8436 34.1553 60.5652 34.1758 60.2605 34.1758C59.7039 34.1758 59.2176 34.085 58.8016 33.9033C58.3914 33.7158 58.075 33.417 57.8523 33.0068C57.6297 32.5967 57.5184 32.0576 57.5184 31.3896V22.1436ZM71.602 29.7549H74.2299C74.1771 30.6162 73.9398 31.3809 73.518 32.0488C73.102 32.7168 72.5189 33.2383 71.7689 33.6133C71.0248 33.9883 70.1283 34.1758 69.0795 34.1758C68.2592 34.1758 67.5238 34.0352 66.8734 33.7539C66.223 33.4668 65.6664 33.0566 65.2035 32.5234C64.7465 31.9902 64.3979 31.3457 64.1576 30.5898C63.9174 29.834 63.7973 28.9873 63.7973 28.0498V27.1621C63.7973 26.2246 63.9203 25.3779 64.1664 24.6221C64.4184 23.8604 64.7758 23.2129 65.2387 22.6797C65.7074 22.1465 66.267 21.7363 66.9174 21.4492C67.5678 21.1621 68.2943 21.0186 69.0971 21.0186C70.1635 21.0186 71.0629 21.2119 71.7953 21.5986C72.5336 21.9854 73.1049 22.5186 73.5092 23.1982C73.9193 23.8779 74.1654 24.6514 74.2475 25.5186H71.6107C71.5814 25.0029 71.4789 24.5664 71.3031 24.209C71.1273 23.8457 70.8607 23.5732 70.5033 23.3916C70.1518 23.2041 69.683 23.1104 69.0971 23.1104C68.6576 23.1104 68.2738 23.1924 67.9457 23.3564C67.6176 23.5205 67.3422 23.7695 67.1195 24.1035C66.8969 24.4375 66.7299 24.8594 66.6186 25.3691C66.5131 25.873 66.4604 26.4648 66.4604 27.1445V28.0498C66.4604 28.7119 66.5102 29.2949 66.6098 29.7988C66.7094 30.2969 66.8617 30.7188 67.0668 31.0645C67.2777 31.4043 67.5473 31.6621 67.8754 31.8379C68.2094 32.0078 68.6107 32.0928 69.0795 32.0928C69.6303 32.0928 70.0844 32.0049 70.4418 31.8291C70.7992 31.6533 71.0717 31.3926 71.2592 31.0469C71.4525 30.7012 71.5668 30.2705 71.602 29.7549ZM81.8359 31.8555V27.6191C81.8359 27.3145 81.7861 27.0537 81.6865 26.8369C81.5869 26.6143 81.4316 26.4414 81.2207 26.3184C81.0156 26.1953 80.749 26.1338 80.4209 26.1338C80.1396 26.1338 79.8965 26.1836 79.6914 26.2832C79.4863 26.377 79.3281 26.5146 79.2168 26.6963C79.1055 26.8721 79.0498 27.0801 79.0498 27.3203H76.5186C76.5186 26.916 76.6123 26.5322 76.7998 26.1689C76.9873 25.8057 77.2598 25.4863 77.6172 25.2109C77.9746 24.9297 78.3994 24.71 78.8916 24.5518C79.3896 24.3936 79.9463 24.3145 80.5615 24.3145C81.2998 24.3145 81.9561 24.4375 82.5303 24.6836C83.1045 24.9297 83.5557 25.2988 83.8838 25.791C84.2178 26.2832 84.3848 26.8984 84.3848 27.6367V31.7061C84.3848 32.2275 84.417 32.6553 84.4814 32.9893C84.5459 33.3174 84.6396 33.6045 84.7627 33.8506V34H82.2051C82.082 33.7422 81.9883 33.4199 81.9238 33.0332C81.8652 32.6406 81.8359 32.248 81.8359 31.8555ZM82.1699 28.208L82.1875 29.6406H80.7725C80.4385 29.6406 80.1484 29.6787 79.9023 29.7549C79.6562 29.8311 79.4541 29.9395 79.2959 30.0801C79.1377 30.2148 79.0205 30.373 78.9443 30.5547C78.874 30.7363 78.8389 30.9355 78.8389 31.1523C78.8389 31.3691 78.8887 31.5654 78.9883 31.7412C79.0879 31.9111 79.2314 32.0459 79.4189 32.1455C79.6064 32.2393 79.8262 32.2861 80.0781 32.2861C80.459 32.2861 80.79 32.21 81.0713 32.0576C81.3525 31.9053 81.5693 31.7178 81.7217 31.4951C81.8799 31.2725 81.9619 31.0615 81.9678 30.8623L82.6357 31.9346C82.542 32.1748 82.4131 32.4238 82.249 32.6816C82.0908 32.9395 81.8887 33.1826 81.6426 33.4111C81.3965 33.6338 81.1006 33.8184 80.7549 33.9648C80.4092 34.1055 79.999 34.1758 79.5244 34.1758C78.9209 34.1758 78.373 34.0557 77.8809 33.8154C77.3945 33.5693 77.0078 33.2324 76.7207 32.8047C76.4395 32.3711 76.2988 31.8789 76.2988 31.3281C76.2988 30.8301 76.3926 30.3877 76.5801 30.001C76.7676 29.6143 77.043 29.2891 77.4062 29.0254C77.7754 28.7559 78.2354 28.5537 78.7861 28.4189C79.3369 28.2783 79.9756 28.208 80.7021 28.208H82.1699ZM89.7672 26.459V34H87.2271V24.4902H89.609L89.7672 26.459ZM89.4156 28.9111H88.7125C88.7125 28.249 88.7916 27.6396 88.9498 27.083C89.1139 26.5205 89.3512 26.0342 89.6617 25.624C89.9781 25.208 90.3678 24.8857 90.8307 24.6572C91.2936 24.4287 91.8297 24.3145 92.4391 24.3145C92.8609 24.3145 93.2477 24.3789 93.5992 24.5078C93.9508 24.6309 94.2525 24.8271 94.5045 25.0967C94.7623 25.3604 94.9615 25.7061 95.1021 26.1338C95.2428 26.5557 95.3131 27.0625 95.3131 27.6543V34H92.7818V27.9355C92.7818 27.502 92.7232 27.168 92.6061 26.9336C92.4889 26.6992 92.3219 26.5352 92.1051 26.4414C91.8941 26.3477 91.6393 26.3008 91.3404 26.3008C91.0123 26.3008 90.7252 26.3682 90.4791 26.5029C90.2389 26.6377 90.0396 26.8252 89.8814 27.0654C89.7232 27.2998 89.6061 27.5752 89.5299 27.8916C89.4537 28.208 89.4156 28.5479 89.4156 28.9111ZM95.0758 28.6211L94.1705 28.7354C94.1705 28.1143 94.2467 27.5371 94.399 27.0039C94.5572 26.4707 94.7887 26.002 95.0934 25.5977C95.4039 25.1934 95.7877 24.8799 96.2447 24.6572C96.7018 24.4287 97.2291 24.3145 97.8268 24.3145C98.2838 24.3145 98.6998 24.3818 99.0748 24.5166C99.4498 24.6455 99.7691 24.8535 100.033 25.1406C100.302 25.4219 100.507 25.791 100.648 26.248C100.795 26.7051 100.868 27.2646 100.868 27.9268V34H98.3277V27.9268C98.3277 27.4873 98.2691 27.1533 98.152 26.9248C98.0406 26.6904 97.8766 26.5293 97.6598 26.4414C97.4488 26.3477 97.1969 26.3008 96.9039 26.3008C96.5992 26.3008 96.3326 26.3623 96.1041 26.4854C95.8756 26.6025 95.6852 26.7666 95.5328 26.9775C95.3805 27.1885 95.2662 27.4346 95.19 27.7158C95.1139 27.9912 95.0758 28.293 95.0758 28.6211Z" fill="#0F0E0E"/>
<g id="Vector 1">
<path d="M50 14.4675H24.9621C28.8704 9.54517 37.5828 5.64835 41.4505 4.31523C46.0916 6.03803 49.084 11.8012 50 14.4675Z" fill="#0DCAF0"/>
<path d="M15.1912 23.0815C16.6568 12.2524 29.0333 3.80249 35.0383 0.931149C23.069 -1.77612 13.9698 2.05918 10.9164 4.31523C10.6721 13.1754 13.6645 20.5178 15.1912 23.0815Z" fill="#0DCAF0"/>
<path d="M19.1606 35.6949C9.38968 29.0498 6.53984 14.6726 6.33628 8.3146C-0.747629 16.9286 -0.483001 27.9012 0.534802 32.3108C7.13016 35.7564 15.7001 36.0025 19.1606 35.6949Z" fill="#0DCAF0"/>
<path d="M3.58821 38.156C14.0919 42.8322 25.8781 40.1044 30.4582 38.156C28.2597 46.0317 23.8425 50.6669 21.9087 52C11.4049 50.5233 5.31847 42.1554 3.58821 38.156Z" fill="#0DCAF0"/>
<path d="M50 38.156C45.1146 48.9851 33.1045 51.8975 27.7101 52C32.3513 48.0622 34.5294 41.1299 35.0383 38.156H50Z" fill="#0DCAF0"/>
</g>
</g>
</svg>
